<svg xmlns="http://www.w3.org/2000/svg" width="14" height="20.708" viewBox="0 0 14 20.708">
  <g id="Group_162676" data-name="Group 162676" transform="translate(-1.285 -1.665)">
    <path id="Path_83680" data-name="Path 83680" d="M6.149,1.722A3.657,3.657,0,0,1,8.7,2.745a3.427,3.427,0,0,1,0,4.942,3.686,3.686,0,0,1-5.1,0,3.427,3.427,0,0,1,0-4.942A3.652,3.652,0,0,1,6.149,1.722Zm1.92,1.636a2.773,2.773,0,0,0-3.84,0,2.579,2.579,0,0,0,0,3.715,2.778,2.778,0,0,0,3.84,0,2.579,2.579,0,0,0,0-3.719Z" transform="translate(2.14 3.237)" fill="#606060"/>
    <path id="Path_83681" data-name="Path 83681" d="M8.346,21.406c-.576-1.052-1.273-2.246-2-3.489a71.9,71.9,0,0,1-4.111-7.688,6.582,6.582,0,0,1-.5-2.5,6.652,6.652,0,0,1,2.054-4.8,7.155,7.155,0,0,1,9.9,0,6.661,6.661,0,0,1,1.544,7.325,71.292,71.292,0,0,1-4.1,7.655c-.726,1.244-1.427,2.442-2,3.506a.451.451,0,0,1-.789,0ZM7.119,17.491c.576.981,1.131,1.932,1.619,2.8.493-.877,1.052-1.832,1.628-2.817a70.705,70.705,0,0,0,4.049-7.55,5.735,5.735,0,0,0,.438-2.208,5.8,5.8,0,0,0-1.791-4.186,6.247,6.247,0,0,0-8.644,0A5.814,5.814,0,0,0,3.054,9.907a71.142,71.142,0,0,0,4.065,7.584Z" transform="translate(-0.45 0.732)" fill="#606060"/>
  </g>
</svg>
