<svg xmlns="http://www.w3.org/2000/svg" width="14" height="10.152" viewBox="0 0 14 10.152">
  <path id="Path_83682" data-name="Path 83682" d="M29.558,82.7H18.486a1.466,1.466,0,0,0-1.464,1.464v7.223a1.466,1.466,0,0,0,1.464,1.464H29.558a1.466,1.466,0,0,0,1.464-1.464V84.164A1.466,1.466,0,0,0,29.558,82.7Zm-2.6,5.074,3.483-2.733v6.114Zm-8.467-4.488H29.558a.88.88,0,0,1,.879.879V84.3L24.8,88.719a1.171,1.171,0,0,1-1.442,0l-5.75-4.423v-.13A.88.88,0,0,1,18.486,83.286Zm2.707,4.506-3.586,3.374V85.034Zm8.364,4.474H18.486a.879.879,0,0,1-.748-.418l3.926-3.693L23,89.181a1.756,1.756,0,0,0,2.162,0l1.327-1.042,3.818,3.706a.879.879,0,0,1-.749.421Z" transform="translate(-17.022 -82.7)" fill="#606060"/>
</svg>
