<svg xmlns="http://www.w3.org/2000/svg" xmlns:xlink="http://www.w3.org/1999/xlink" width="24" height="24" viewBox="0 0 24 24">
  <defs>
    <clipPath id="clip-path">
      <rect id="Rectangle_147730" data-name="Rectangle 147730" width="24" height="24" transform="translate(100 0.19)" fill="#5a5a5a" stroke="#707070" stroke-width="1"/>
    </clipPath>
  </defs>
  <g id="Mask_Group_7" data-name="Mask Group 7" transform="translate(-100 -0.19)" clip-path="url(#clip-path)">
    <g id="twitter" transform="translate(100 0.19)">
      <g id="Group_162709" data-name="Group 162709">
        <g id="Group_162708" data-name="Group 162708">
          <g id="Group_162707" data-name="Group 162707">
            <path id="Path_83704" data-name="Path 83704" d="M23.6,10.4a6.043,6.043,0,0,1-1.9.727A3,3,0,0,0,19.52,10.2a2.96,2.96,0,0,0-2.982,2.909,2.911,2.911,0,0,0,.08.669,8.516,8.516,0,0,1-6.153-3.069,2.872,2.872,0,0,0,.924,3.9,3.011,3.011,0,0,1-1.353-.371v.036a2.953,2.953,0,0,0,2.393,2.909,3.048,3.048,0,0,1-1.345.051,2.982,2.982,0,0,0,2.785,2.036,6.044,6.044,0,0,1-3.687,1.273,6.188,6.188,0,0,1-.727-.044,8.545,8.545,0,0,0,4.575,1.324,8.364,8.364,0,0,0,8.515-8.21q0-.073,0-.147v-.378A6.044,6.044,0,0,0,24,11.564a6.035,6.035,0,0,1-1.716.465A2.96,2.96,0,0,0,23.6,10.4Z" transform="translate(-4.333 -4.003)" fill="#5a5a5a"/>
            <path id="Path_83705" data-name="Path 83705" d="M12,0A12,12,0,1,0,24,12,12,12,0,0,0,12,0Zm0,22.909A10.909,10.909,0,1,1,22.909,12,10.909,10.909,0,0,1,12,22.909Z" fill="#5a5a5a"/>
          </g>
        </g>
      </g>
    </g>
  </g>
</svg>
