<svg xmlns="http://www.w3.org/2000/svg" xmlns:xlink="http://www.w3.org/1999/xlink" width="24" height="24" viewBox="0 0 24 24">
  <defs>
    <clipPath id="clip-path">
      <rect id="Rectangle_147734" data-name="Rectangle 147734" width="24" height="24" transform="translate(576 411)" fill="#5a5a5a" stroke="#707070" stroke-width="1"/>
    </clipPath>
  </defs>
  <g id="Mask_Group_10" data-name="Mask Group 10" transform="translate(-576 -411)" clip-path="url(#clip-path)">
    <g id="YOUTUBE" transform="translate(576.096 411)">
      <g id="Group_162792" data-name="Group 162792">
        <g id="Group_162791" data-name="Group 162791">
          <g id="Group_162790" data-name="Group 162790">
            <path id="Path_83725" data-name="Path 83725" d="M227.567,142.858h.223a.9.9,0,0,0,.9-.891v-1.451a.9.9,0,0,0-.891-.88h-.223a.9.9,0,0,0-.9.891v1.451A.9.9,0,0,0,227.567,142.858Zm-.223-2.4a.337.337,0,0,1,.674,0v1.559a.337.337,0,0,1-.674,0Z" transform="translate(-216.093 -133.117)" fill="#5a5a5a"/>
            <path id="Path_83726" data-name="Path 83726" d="M169.789,121.949h.788v-1.733l.9-2.456h-.733l-.543,1.63-.543-1.63h-.809l.956,2.456Z" transform="translate(-160.961 -112.262)" fill="#5a5a5a"/>
            <path id="Path_83727" data-name="Path 83727" d="M283.5,142.858a1.4,1.4,0,0,0,.842-.391v.337H285v-3.167h-.652v2.456s-.223.261-.435.261-.223-.168-.223-.168v-2.548H283v2.787A.511.511,0,0,0,283.5,142.858Z" transform="translate(-269.784 -133.117)" fill="#5a5a5a"/>
            <path id="Path_83728" data-name="Path 83728" d="M277.4,286.6a.468.468,0,0,0-.337.168v2.249a.446.446,0,0,0,.337.147c.337,0,.337-.375.337-.375v-1.815S277.675,286.6,277.4,286.6Z" transform="translate(-264.126 -273.223)" fill="#5a5a5a"/>
            <path id="Path_83729" data-name="Path 83729" d="M11.952,0A11.952,11.952,0,1,0,23.9,11.952,11.952,11.952,0,0,0,11.952,0Zm0,22.818A10.866,10.866,0,1,1,22.818,11.952,10.866,10.866,0,0,1,11.952,22.818Z" fill="#5a5a5a"/>
            <path id="Path_83730" data-name="Path 83730" d="M332.671,286.6c-.337,0-.337.375-.337.375v.484h.674v-.484S333.008,286.6,332.671,286.6Z" transform="translate(-316.818 -273.223)" fill="#5a5a5a"/>
            <path id="Path_83731" data-name="Path 83731" d="M138.129,221.2h-.039s-2.048-.114-4.113-.114-4.124.109-4.124.109a1.63,1.63,0,0,0-1.683,1.575q0,.028,0,.055a12.871,12.871,0,0,0,0,4.151,1.63,1.63,0,0,0,1.629,1.631h.055s2.026.109,4.124.109,4.123-.109,4.123-.109a1.63,1.63,0,0,0,1.683-1.575c0-.018,0-.037,0-.055a15.209,15.209,0,0,0,.168-2.086,14.816,14.816,0,0,0-.168-2.086A1.63,1.63,0,0,0,138.129,221.2Zm-6.591,1.821h-.82v4.227h-.809v-4.227h-.82v-.7h2.466Zm2.135,4.227h-.679v-.32a1.418,1.418,0,0,1-.842.375.5.5,0,0,1-.505-.429v-3.319h.7v3.1s0,.163.223.163.451-.266.451-.266v-3h.674Zm2.016.054a.9.9,0,0,1-.728-.359v.3h-.733V222.33h.728v1.6a1.087,1.087,0,0,1,.728-.364c.451,0,.619.375.619.858l.005,2.026S136.308,227.306,135.688,227.306Zm3.254-1.749h-1.4v.8s0,.375.337.375.337-.375.337-.375v-.38h.728v.587a.945.945,0,0,1-1.011.75,1.032,1.032,0,0,1-1.087-.75v-2.1a.945.945,0,0,1,1.087-.907.886.886,0,0,1,1.011.907v1.087Z" transform="translate(-122.025 -210.769)" fill="#5a5a5a"/>
          </g>
        </g>
      </g>
    </g>
  </g>
</svg>
